<?xml version="1.0" encoding="utf-8"?>
<!-- Generator: Adobe Illustrator 19.1.0, SVG Export Plug-In . SVG Version: 6.00 Build 0)  -->
<svg version="1.1"
	 id="svg8575" xmlns:cc="http://creativecommons.org/ns#" xmlns:inkscape="http://www.inkscape.org/namespaces/inkscape" xmlns:svg="http://www.w3.org/2000/svg" xmlns:sodipodi="http://sodipodi.sourceforge.net/DTD/sodipodi-0.dtd" xmlns:dc="http://purl.org/dc/elements/1.1/" xmlns:rdf="http://www.w3.org/1999/02/22-rdf-syntax-ns#" inkscape:version="0.48.4 r9939" sodipodi:docname="meetup_logo.gif"
	 xmlns="http://www.w3.org/2000/svg" xmlns:xlink="http://www.w3.org/1999/xlink" x="0px" y="0px" viewBox="-64 236 483 322"
	 enable-background="new -64 236 483 322" xml:space="preserve">
<sodipodi:namedview  bordercolor="#666666" inkscape:cy="251.36435" borderopacity="1" showgrid="false" gridtolerance="10" fit-margin-top="0" objecttolerance="10" inkscape:cx="518.05951" fit-margin-left="0" guidetolerance="10" id="namedview8577" pagecolor="#ffffff" inkscape:zoom="1.0365043" inkscape:pageopacity="0" inkscape:current-layer="svg8575" inkscape:window-x="0" inkscape:pageshadow="2" fit-margin-bottom="0" inkscape:window-maximized="1" inkscape:window-height="998" inkscape:window-width="1920" fit-margin-right="0" inkscape:window-y="33">
	</sodipodi:namedview>
<g id="g9361" transform="translate(39.067803,161)">
	<rect id="rect8591" x="-100.8" y="156.2" fill="#FFFFFF" width="476.2" height="206.7"/>
	<g id="g8585" transform="translate(-39.567803,-161)">
		
			<path id="path8589" inkscape:connector-curvature="0" sodipodi:nodetypes="sscccsscccsscccsscssccccccccccssssssssssscsscccssssssssssssccsssssssssssscsscsccssssscccsssssssscssscssssssssssccssssssssscssssscsssssssssssscsssssscsssssssssscsssssssssssssssssssss" fill="#F00101" d="
			M-43.8,555.9c-6.4-2.5-13.9-9.6-17.3-16.4l-2.5-5V397V259.5l2.5-5c3.5-7,10.8-13.9,17.6-16.4l5.5-2.1H178h215.9l5.7,2.1
			c6.9,2.6,14.5,9.7,17.7,16.6l2.2,4.7V397v137.5l-2.2,4.7c-3.2,6.9-10.8,14-17.7,16.6l-5.7,2.1l-216.2-0.1
			C-36.8,557.9-38.5,557.9-43.8,555.9z M414,418.5V322H178H-58v96.5V515h236h236V418.5z M316.1,501c-1.9-1.4-5.3-19.8-6.7-36.5
			c-0.7-8.1-1-9.2-3.6-11.7c-4.1-3.8-3.4-8.9,1.2-8.9c1.7,0,2.8-3.4,3.5-11.5c1-10.8,5.5-27.8,9.6-35.9c4.9-9.8,17.6-20.6,24.2-20.6
			c2.2,0,8,1.9,15.1,4.9c1.1,0.5,3.3,1.4,4.8,2c3.6,1.5,7.4,9.5,8.2,17.6c0.8,7.2-0.8,16.9-4,23.9c-4.8,10.8-25.3,29.1-35.5,31.7
			l-5.1,1.3l0,9.6c0,11.9,1.5,23.1,3.6,28.8c0.9,2.4,1.3,4.6,0.9,5C331.7,501.6,317.2,501.8,316.1,501L316.1,501z M338.4,432.9
			c4.1-3.9,8.6-9.2,10-11.9c3.1-5.9,4.8-15.7,4-22.7c-0.9-8-1.8-8.6-6-3.9c-6.8,7.7-10.9,16.7-14.1,31c-2.8,12.7-3.1,14.6-2.2,14.6
			C330.6,440,334.3,436.8,338.4,432.9z M212.2,447.4c-0.6-10.2-1.4-18.9-1.7-19.3s-4-1.1-8.2-1.5c-8.8-0.8-10.3-1.6-10.3-5.6
			c0-4.5,3.2-6.1,10.7-5.3l6.3,0.6l0-3.9c0-2.1-0.5-7.3-1-11.4c-3.8-30.2-4.6-51.6-2-58.5c0.8-2.1,1.6-2.5,5-2.5
			c3.9,0,13.1,3.8,14.5,6c0.3,0.6,0.9,13.3,1.1,28.3c0.6,35.1,0.7,32.7-0.2,36.5c-0.6,2.9-0.5,3.3,1.5,3.3c1.8,0,2.1-0.5,1.9-2.8
			c-0.3-2.3,0.1-2.8,2.3-3.1c2.1-0.2,4,1,9.2,6c3.6,3.4,6.6,6.8,6.6,7.4c0,1.4-3.5,2.2-17.7,4l-4.2,0.5l0.5,18.8
			c0.6,21.3,1.1,19.9-8.1,20.6l-5.1,0.4L212.2,447.4z M65.6,463.4c-0.3-0.9-0.6-2.3-0.6-3.3c0-0.9-1.2-4.4-2.6-7.7
			c-2.9-6.7-7.8-22.3-9.5-30c-1.9-8.6-4.1-15.7-4.7-15.1c-0.3,0.3-0.9,9.5-1.4,20.3c-0.4,10.9-1.4,21.8-2.1,24.3l-1.3,4.5l-9.9,0.9
			l-9.9,0.9l-2.2-2.8c-1.2-1.5-5-7.5-8.5-13.2s-6.4-10.3-6.6-10.1c-0.2,0.2,0.3,4.7,1.1,10.1c0.8,5.4,1.1,10.4,0.9,11.1
			c-0.9,2.3-10.8,5.9-15.8,5.8c-4.6-0.1-5.6-2-7.1-13.8c-2.5-19.7-2.8-25.4-2-42.3l0.7-16.7l4.4-1.2c7.1-1.9,15-1.5,17.1,0.8
			c1,1.1,5.8,9.7,10.7,19.3l8.9,17.3l1.3-9.5c1.9-14.3,8.4-35.9,12.9-42.7c1.7-2.5,1.8-2.6,10.3-1.9c10.1,0.8,11.6,1.8,13.6,9
			c4.5,16.2,6.1,22.7,10.6,44.7c1.1,5.3,2.7,11.5,3.5,13.9c0.8,2.3,1.5,5.1,1.5,6.1c0,1,1.1,5.3,2.5,9.5c2.5,7.7,3,10.3,1.8,9.1
			c-0.4-0.4-1.3-0.2-2,0.5c-1.1,0.9-11.6,3.7-14.5,3.8C66.5,465,65.9,464.3,65.6,463.4L65.6,463.4z M105.7,462.9
			c-4.7-1.1-6.8-2.2-13.5-7.2c-7.7-5.7-9-9.1-9.1-25.2c-0.1-16.3,0.5-22.2,3.2-30.9c2.5-8,8-14.7,17.1-20.9
			c6.2-4.3,6.7-4.3,18.9-0.9c4.6,1.3,6.1,2.2,7.3,4.6c3.2,6.1,4.2,40.1,1.4,44.7c-1,1.6-16.1,1.7-23,0.1c-2.1-0.5-4.2-0.6-4.5-0.3
			c-0.3,0.3-0.5,3.7-0.5,7.6c0,8.4,2.2,13.9,7,18c3,2.5,3.8,2.7,7.9,2.1c2.5-0.4,5.7-1.4,7.1-2.2c3.5-2,12.7-0.2,15.8,3.1l2.2,2.3
			l-5.3,2C128.1,463.4,113.9,464.8,105.7,462.9L105.7,462.9z M112,406c0-5.5-0.4-10-0.9-10c-1,0-4.9,9.2-6.1,14.5
			c-0.7,3.2-0.6,3.7,1.3,4.5C111.8,417.2,112,416.8,112,406z M169.5,461.3c-14.8-1.9-20.1-4.7-26.3-13.7c-4.5-6.7-4.8-7.4-5.3-15.6
			c-0.5-7-0.2-10.2,1.8-17.6c5.7-22.1,7.7-26,18.7-37.5c5-5.2,6.3-6,9.4-6c2,0,5.6,0.9,8,2c2.4,1.1,4.9,2,5.6,2s2.2,1,3.5,2.2
			c2.2,2.1,2.3,2.5,1.6,13.2c-0.4,6.1-1.1,11.6-1.6,12.2c-0.5,0.6-1,7-1.2,14.2l-0.3,13.1l-5.6,1.6c-5,1.4-6.5,1.4-13,0.2
			c-8.5-1.6-9.2-1.2-8.6,5.2c0.5,5.2,5.8,13.8,9.8,15.8c5.5,2.9,16.9,1,19.6-3.2c1.9-2.8,3.8-2.9,8-0.3c4.2,2.6,4.4,6.1,0.5,8
			C184.7,461.4,178.6,462.5,169.5,461.3L169.5,461.3z M167.4,418.8c0.3-1.2,0.6-7.2,0.6-13.3c0-10.5-0.1-10.9-1.6-8.1
			c-1.9,3.5-7.4,19.1-7.4,21c0,1.7,1.5,2.4,5.1,2.5C166.1,421,166.9,420.4,167.4,418.8L167.4,418.8z M261.3,459.5
			c-5.2-3.6-9.5-18.7-11.2-39.6c-1-11.4-0.8-17,0.5-19.1c0.9-1.5,6.3-0.8,11.1,1.4c8.9,4.2,8.6,3.5,9.5,24c0.9,20.8,1.4,25,3.1,24.5
			c2.2-0.7,10.4-13.8,11.6-18.7c0.7-2.8,1.1-9.7,1-16.4c-0.3-16.1,0.8-17.1,12.4-11.7c9.3,4.3,9.3,4.4,7.9,15.5
			c-1.3,10-2.6,14-5.5,16.6c-1,0.9-2.8,3.6-4.1,6c-1.3,2.4-2.9,4.4-3.6,4.4c-0.7,0-1.5,0.7-1.7,1.5c-0.4,1.3-0.3,1.3,0.7,0
			c0.6-0.8,1.1-1,1.1-0.5c0,2.2-9.8,11.6-13.1,12.5C275.6,461.5,263.8,461.2,261.3,459.5L261.3,459.5z"/>
		
			<path id="path8587" inkscape:connector-curvature="0" sodipodi:nodetypes="cssssssssssscsscccssssssssssssccsssscssssssssscssssssscccsscssssscssscsscsssssssscscsssssssssssssscsccssssssssssscsssssscssssssssssscssssssssssscsssssssssss" fill="#030303" d="
			M316.1,501c-1.9-1.4-5.3-20.1-6.7-37c-0.6-7.6-1-8.8-3.6-11.2c-4.1-3.8-3.4-8.9,1.3-8.9c1.8,0,2.7-2.6,3.3-9.7
			c1.2-12.6,5.5-29.2,9.8-37.8c4.9-9.8,17.6-20.6,24.2-20.6c2.2,0,8,1.9,15.1,4.9c1.1,0.5,3.3,1.4,4.8,2c1.9,0.8,3.5,2.7,5.2,6.4
			c4.4,9.6,4.2,21.5-0.4,33.8c-4.1,10.8-25.3,30.3-36,33l-5.1,1.3l0,9.6c0,11.9,1.5,23.1,3.6,28.8c0.9,2.4,1.3,4.6,0.9,5
			C331.7,501.6,317.2,501.8,316.1,501L316.1,501z M338.4,432.9c4.1-3.9,8.6-9.3,10.1-12.2c3.1-5.9,4.7-15.1,3.8-22.4
			c-0.9-8.1-1.8-8.6-6.3-3.4c-6.9,7.9-10.6,16.4-14.5,34c-0.9,4.1-1.9,8.3-2.2,9.3C328.4,441.5,331,440,338.4,432.9L338.4,432.9z
			 M212.2,447.4c-0.6-10.2-1.4-18.9-1.7-19.3s-4-1.1-8.2-1.5c-8.8-0.8-10.3-1.6-10.3-5.6c0-4.5,3.2-6.1,10.7-5.3l6.3,0.6l0-3.9
			c0-2.1-0.5-7.3-1-11.4c-3.8-30.2-4.6-51.6-2-58.5c0.8-2.1,1.6-2.5,5-2.5c3.9,0,13.1,3.8,14.5,6c0.5,0.8,1.3,30.7,1.6,58.5
			c0,1.6-0.3,4.5-0.7,6.3c-0.6,2.9-0.5,3.3,1.5,3.3c1.8,0,2.1-0.5,1.9-2.8c-0.3-2.3,0.1-2.8,2.4-3.1c2.2-0.2,4,1,9.5,6.2
			c3.7,3.6,6.4,6.8,6,7.2c-1.5,1.5-8.4,3.3-12.7,3.4c-9.6,0.1-9-1.4-8.4,20c0.6,21.3,1.1,19.8-8.1,20.5l-5.1,0.4L212.2,447.4z
			 M65.1,460.3c-0.7-2.6-2.3-7.2-3.6-10.3c-2.6-5.9-6-17.1-9.5-31.5c-1.2-5-2.6-9.7-3-10.5c-1.1-2.1-1.8,4.5-2.4,23.5
			c-0.3,8.8-1.1,18-1.8,20.5l-1.3,4.5l-9.9,0.9l-9.9,0.9l-2.2-2.8c-1.2-1.5-5-7.5-8.5-13.2s-6.4-10.3-6.5-10.1
			c-0.2,0.2,0.3,4.5,1,9.7c0.7,5.2,1.1,10.2,0.8,11.1c-0.7,2.6-10.1,6.3-15.7,6.2c-4.6-0.1-5.6-2-7.1-13.8c-2.5-20-2.7-24.7-2-41.9
			l0.7-17.1l4.4-1.2c7.1-1.9,15-1.5,17.1,0.8c1,1.1,5.8,9.7,10.7,19.3l8.9,17.3l1.3-9.5c1.9-14,7.4-32.7,12.2-41.2l1.9-3.3l8.8,0.2
			c7.3,0.2,9.2,0.6,10.8,2.2c2.5,2.5,7.2,20.4,14.2,53.8c0.8,4,2.2,9.1,3,11.4c0.8,2.3,1.5,5,1.5,6c0,1,1.1,5.3,2.5,9.5
			c2.5,7.7,3,10.3,1.8,9.1c-0.4-0.4-1.3-0.2-2,0.5c-1.1,0.9-11.6,3.7-14.5,3.8C66.5,465,65.7,462.9,65.1,460.3L65.1,460.3z
			 M105.7,462.9c-4.7-1.1-6.8-2.2-13.5-7.2c-7.7-5.7-9-9.2-9.1-24.7c-0.2-15.9,0.6-22.8,3.2-31.2c2.5-7.8,8.4-15.1,16.9-20.9
			c5.2-3.5,5.6-3.6,10.9-2.9c9.4,1.4,14,3.2,15.6,6.3c3.1,6,4.2,40.2,1.4,44.7c-1,1.6-17.5,1.7-23,0.1c-1.8-0.5-3.7-0.7-4.2-0.4
			s-0.8,3.8-0.8,7.7c0,8.5,2.1,14,7,18.1c3,2.5,3.8,2.7,7.9,2.1c2.5-0.4,5.7-1.4,7.1-2.2c3.5-2,12.7-0.2,15.8,3.1l2.2,2.3l-5.3,2
			C128.1,463.4,113.9,464.8,105.7,462.9L105.7,462.9z M112.2,412.3c0.5-5.8-0.3-16.3-1.2-16.3c-1,0-4.9,9.4-6,14.5
			c-0.7,3.2-0.6,3.7,1.3,4.5C110.7,416.8,111.9,416.2,112.2,412.3z M169.5,461.3c-14.8-1.9-20.1-4.7-26.3-13.7
			c-4.6-6.8-4.8-7.3-5.3-16.1c-0.4-6.2-0.2-10.1,0.7-12.6c0.7-1.9,2-6.8,2.9-10.7c3.1-14.2,6.4-20.3,17.1-31.4
			c4.9-5.1,6.1-5.9,9.3-5.9c2,0,5.6,0.9,8,2c2.4,1.1,4.9,2,5.6,2c0.7,0,2.2,1,3.5,2.2c2.2,2.1,2.3,2.5,1.6,13.2
			c-0.4,6.1-1.1,11.6-1.6,12.2c-0.5,0.6-1,7-1.2,14.2l-0.3,13.1l-5.6,1.6c-5,1.4-6.5,1.4-13,0.2c-8.1-1.5-8.8-1.2-8.9,3.9
			c0,4,3.6,11.1,7.7,15.2c2.9,2.9,4.1,3.4,8,3.4c6.4,0,12.3-2,14-4.7c1.9-2.8,3.8-2.9,8-0.3c5,3.1,4.5,6.2-1.6,8.8
			C183.7,461.5,177.9,462.4,169.5,461.3L169.5,461.3z M167.4,418.8c0.3-1.2,0.6-7.2,0.6-13.3c0-10.5-0.1-10.9-1.6-8.1
			c-1.9,3.5-7.4,19.1-7.4,21c0,1.7,1.5,2.4,5.1,2.5C166.1,421,166.9,420.4,167.4,418.8L167.4,418.8z M261.4,459.5
			c-5.2-3.6-9.5-18.9-11.3-40.5c-0.9-10.6-0.7-16.1,0.6-18.2c0.9-1.5,6.3-0.8,11.1,1.4c8.9,4.2,8.6,3.5,9.5,24
			c0.9,20.8,1.4,25,3.1,24.5c2.2-0.7,10.4-13.8,11.6-18.6c0.7-2.6,1.2-9,1.1-14.2c-0.1-5.2-0.2-10.4-0.2-11.7c0-2.9,1.9-5.2,4.3-5.2
			c2.5,0,14.4,5.6,16,7.6c1.1,1.3,1.1,3.3,0.2,11c-1.3,10-2.6,14-5.5,16.6c-1,0.9-2.8,3.6-4.1,6c-1.3,2.4-2.9,4.4-3.6,4.4
			c-0.7,0-1.5,0.7-1.7,1.5c-0.4,1.3-0.3,1.3,0.7,0c0.6-0.8,1.1-1,1.1-0.5c0,2.2-9.8,11.6-13.1,12.5
			C275.6,461.5,263.8,461.2,261.4,459.5L261.4,459.5z"/>
	</g>
</g>
</svg>
